<?xml version="1.0" encoding="UTF-8" standalone="no"?>
<!-- Created with Inkscape (http://www.inkscape.org/) -->

<svg
   width="300"
   height="300"
   viewBox="0 0 79.374998 79.375002"
   version="1.1"
   id="svg5"
   sodipodi:docname="logo.svg"
   inkscape:version="1.1 (c68e22c387, 2021-05-23)"
   xmlns:inkscape="http://www.inkscape.org/namespaces/inkscape"
   xmlns:sodipodi="http://sodipodi.sourceforge.net/DTD/sodipodi-0.dtd"
   xmlns="http://www.w3.org/2000/svg"
   xmlns:svg="http://www.w3.org/2000/svg">
  <sodipodi:namedview
     id="namedview7"
     pagecolor="#ffffff"
     bordercolor="#666666"
     borderopacity="1.0"
     inkscape:pageshadow="2"
     inkscape:pageopacity="0.0"
     inkscape:pagecheckerboard="0"
     inkscape:document-units="mm"
     showgrid="false"
     inkscape:zoom="2.096401"
     inkscape:cx="157.88964"
     inkscape:cy="180.07051"
     inkscape:window-width="1920"
     inkscape:window-height="1017"
     inkscape:window-x="-8"
     inkscape:window-y="-8"
     inkscape:window-maximized="1"
     inkscape:current-layer="layer1"
     units="px" />
  <defs
     id="defs2" />
  <g
     inkscape:label="Camada 1"
     inkscape:groupmode="layer"
     id="layer1"
     style="display:inline">
    <path
       id="path2773"
       style="fill:#ffffff;stroke-width:0.306251"
       d="m 34.883284,5.3409434 c -1.101239,0.010499 -2.112277,0.4901065 -3.397655,1.5061779 -1.551072,1.2260952 -1.685299,1.2703659 -4.372471,1.4259853 -3.254475,0.188474 -3.956426,0.5476919 -5.41126,2.7699684 -1.005857,1.536455 -2.806827,2.745813 -4.093004,2.748263 -1.476468,0.0028 -3.806391,2.329746 -3.809311,3.804637 -0.0025,1.284799 -1.213101,3.083856 -2.751201,4.088628 -2.2246547,1.453292 -2.5842593,2.154473 -2.7729325,5.405479 -0.1557859,2.684311 -0.1995009,2.818381 -1.4269075,4.367795 -1.6274518,2.05441 -1.8793772,3.407658 -1.0339639,5.550191 0.7913648,2.005677 0.7926998,3.123651 0.00726,5.356032 -0.8038603,2.284674 -0.5833633,3.453678 1.0363775,5.498335 1.0378263,1.310082 1.2231263,1.621524 1.356287,3.346393 1.5385817,-0.06874 3.2917434,0.02472 5.0593624,0.285196 0.225737,0.03325 0.633239,0.08136 0.906002,0.106725 0.418195,0.03891 0.496158,0.02963 0.496158,-0.05788 0,-0.141035 0.438697,-0.959802 0.738804,-1.378956 1.28348,-1.792587 2.994115,-3.09589 4.528198,-3.066622 1.534083,0.0293 1.811912,0.795244 1.810796,1.797405 -0.0061,1.541378 -1.418562,2.668783 -3.774906,3.01296 l -0.549273,0.08019 -0.07364,0.249625 c -0.16749,0.564557 -0.351683,1.524701 -0.429158,2.239367 -0.141207,1.302556 0.08554,2.377349 0.59575,2.824836 0.284669,0.249679 0.715032,0.371793 1.118471,0.316552 0.914134,-0.12516 3.266702,-1.730563 3.390412,-2.313533 0.158264,-0.74579 1.362439,-3.467497 1.688265,-3.816094 0.222071,-0.237584 0.891052,-0.483023 1.245827,-0.457035 0.24561,0.01797 0.281375,0.04233 0.299989,0.203195 0.01176,0.101512 -0.299274,1.134908 -0.699572,2.323179 -0.812753,2.412628 -0.931098,2.929392 -0.806406,3.524866 0.09291,0.443652 0.249172,0.692338 0.518491,0.824236 0.162662,0.07965 0.22261,0.07207 0.507022,-0.06451 0.429228,-0.206131 1.41903,-1.209633 1.74078,-1.764847 0.164461,-0.283783 0.476364,-1.119058 0.876425,-2.3473 0.78263,-2.402799 0.879882,-2.616308 1.242206,-2.724746 0.715517,-0.214147 0.709819,0.34502 -0.02655,2.608979 -0.503177,1.546992 -0.657676,2.222 -0.712246,3.10883 -0.0435,0.707039 0.02277,1.059392 0.199186,1.059392 0.140376,0 0.545253,-0.337283 0.777436,-0.647575 0.128586,-0.171838 0.404053,-0.832525 0.733977,-1.760622 0.603683,-1.69823 1.03646,-2.668697 1.349645,-3.025019 0.250685,-0.285219 0.728566,-0.546019 1.190297,-0.649383 0.452117,-0.101237 0.578849,-0.0454 0.578849,0.253845 v 0.243592 l 0.290334,-0.04582 c 0.159892,-0.0251 0.61796,-0.06429 1.017668,-0.08682 0.631574,-0.03562 0.792864,-0.02071 1.231338,0.112148 0.968364,0.293504 1.500022,1.084767 1.405782,2.092854 -0.04578,0.489645 -0.277488,1.102884 -0.595753,1.576723 -0.284878,0.424155 -0.973978,1.137411 -1.356285,1.403677 -0.3445,0.239926 -0.307346,0.297111 0.234801,0.364787 0.437744,0.05462 0.750068,-0.03075 1.283855,-0.351521 l 0.421311,-0.253243 0.0055,-0.622848 c 0.01139,-1.280038 0.595136,-2.525158 1.701542,-3.630384 0.757192,-0.756378 1.727563,-1.354211 2.490449,-1.533916 0.993856,-0.234108 1.916892,0.304107 1.923064,1.120891 0.0023,0.299046 -0.299087,0.763797 -0.55229,0.851975 -0.330904,0.115236 -0.480968,-0.07286 -0.198584,-0.249023 0.167708,-0.104624 0.1872,-0.504632 0.03078,-0.634305 -0.290927,-0.241191 -1.227817,0.02365 -1.836751,0.519144 -1.170969,0.952843 -1.964143,3.407331 -1.40035,4.333427 0.204222,0.335463 0.661668,0.507203 1.224702,0.460052 0.758894,-0.06355 1.404282,-0.38146 2.367918,-1.167317 0.409948,-0.334326 0.421168,-0.3526 0.465977,-0.748265 0.06306,-0.556945 0.26238,-1.055321 0.659128,-1.647874 0.655034,-0.978308 1.508292,-1.576738 2.695672,-1.890863 0.686833,-0.18171 1.766105,-0.197775 2.214603,-0.03316 0.394106,0.144667 0.39754,0.143964 0.525131,-0.1025 0.109603,-0.211736 0.111705,-0.21215 0.590924,-0.185107 0.789339,0.04456 0.827587,0.221672 0.309648,1.429604 -0.167438,0.390508 -0.43482,1.048753 -0.594546,1.462163 -0.159718,0.413405 -0.428357,1.099778 -0.596959,1.52547 -0.16861,0.42569 -0.333457,0.867555 -0.366384,0.982212 -0.12428,0.43289 0.207499,0.608156 0.593336,0.313536 0.10854,-0.08287 0.540818,-0.468179 0.96093,-0.856797 0.857046,-0.79281 0.819193,-0.719108 1.222891,-2.374432 0.286631,-1.175322 1.78796,-5.484202 1.991272,-5.714794 0.214565,-0.243358 1.348161,-0.469196 1.691887,-0.337049 0.185135,0.07118 0.194401,0.09375 0.155124,0.364788 -0.04913,0.339116 -0.34996,1.146028 -0.995938,2.671084 -0.520431,1.228695 -1.07231,2.794338 -1.141406,3.237859 -0.06758,0.433749 0.111881,0.380256 0.459944,-0.136871 0.158097,-0.23489 0.409362,-0.574368 0.558329,-0.754294 0.497043,-0.600351 1.874786,-1.629499 2.288847,-1.709977 0.234103,-0.0455 0.563758,0.04232 0.563758,0.150136 0,0.03494 -0.268966,0.260809 -0.598165,0.501657 -0.369219,0.270133 -0.996297,0.857795 -1.636355,1.533914 l -1.037589,1.095568 0.164179,0.692793 c 0.09008,0.380755 0.239462,0.84206 0.332587,1.025623 0.195619,0.385626 0.529333,0.693397 0.751479,0.693397 0.248507,0 0.759079,-0.384854 1.027927,-0.774795 0.208084,-0.301807 0.270047,-0.480367 0.376646,-1.082302 0.07023,-0.396486 0.216898,-0.932657 0.325945,-1.191436 0.67543,-1.602984 2.218044,-3.035779 3.746534,-3.479645 1.199405,-0.348308 2.529223,0.254854 2.619014,1.188421 0.04165,0.432906 -0.211141,0.923956 -0.69112,1.343378 -0.594005,0.519061 -2.048881,1.190467 -3.038516,1.402472 -0.342261,0.07333 -0.345083,0.07612 -0.567383,0.564967 -0.374797,0.824192 -0.307838,1.312577 0.235405,1.717213 0.155681,0.115961 0.288282,0.140542 0.748462,0.138679 0.849667,-0.0033 1.398556,-0.268712 3.124226,-1.509191 1.969847,-1.416012 2.276597,-1.556847 3.386187,-1.55381 1.153873,0.003 2.072905,0.252549 4.511298,1.237258 0.501181,-0.820257 0.64042,-1.769718 0.64042,-3.295141 0,-2.332382 0.16492,-2.799035 1.699732,-4.815188 1.351116,-1.774829 1.529959,-2.989351 0.761742,-5.172739 -0.784806,-2.232382 -0.782954,-3.350355 0.0084,-5.356035 0.798315,-2.023164 0.590268,-3.449645 -0.760532,-5.22399 -1.548978,-2.034649 -1.708248,-2.491423 -1.709392,-4.888749 -0.0013,-2.638327 -0.563756,-3.804416 -2.38844,-4.955072 -1.669876,-1.053017 -2.788697,-2.490388 -3.008924,-3.86613 C 65.350991,15.893514 63.426574,13.79463 61.773054,13.791364 60.486888,13.788897 58.685309,12.579556 57.67945,11.043101 56.224563,8.8207985 55.523228,8.4615806 52.268739,8.2731066 49.581565,8.1174885 49.446733,8.0732178 47.895667,6.8471213 45.839057,5.2214071 44.484373,4.969754 42.33954,5.8142618 c -2.017391,0.7943315 -3.28038,0.7943333 -5.297786,0 C 36.237447,5.4975713 35.54403,5.3346466 34.883288,5.3409434 Z m 5.515683,5.4832606 c 0.177777,-0.0033 0.361358,0.02064 0.549276,0.07778 0.704218,0.224526 1.435769,0.800126 1.709391,1.574313 0.40494,0.953297 0.397617,2.255796 0.06638,3.287905 -0.251525,0.800831 -0.698946,1.558897 -1.196937,2.235751 0.380426,0.02659 1.143754,-0.365406 1.652053,-0.543261 1.410255,-0.307278 2.860477,-0.779944 4.322971,-0.279771 1.123553,0.202315 2.168975,0.985714 2.436726,2.202589 0.225626,2.274769 -0.576209,-0.660529 -1.417247,-0.872472 -1.167917,-0.602472 -2.67015,-0.454142 -3.933049,-0.199579 -1.65362,0.404132 -3.4176,1.088192 -4.873457,2.089838 -0.480096,0.198879 -0.857698,0.561833 -1.319466,0.814589 -0.959907,0.617912 -1.895385,1.382484 -2.818804,2.106118 -0.648478,0.387323 -1.165289,1.439349 -2.04137,1.068434 -0.471233,-1.006047 0.926474,-1.451133 1.441391,-2.082602 0.651238,-0.50731 1.255164,-0.966859 1.903751,-1.424177 1.242151,-0.94508 2.676237,-1.790019 3.995821,-2.505874 0.567003,-1.759773 1.34945,-3.797738 0.626538,-5.639424 -0.353112,-0.793013 -1.497992,-0.954281 -1.952642,-0.169431 -0.554995,0.667504 -0.297548,1.903557 -0.866166,2.505272 -1.601167,0.267289 -0.610327,-2.253685 -0.155123,-3.037076 0.437857,-0.658701 1.099589,-1.194555 1.869948,-1.208922 z m -4.102659,2.197765 c 0.19782,0.0038 0.394686,0.03087 0.587301,0.08502 0.588341,1.090162 -0.988778,1.062175 -1.617041,1.365087 -0.863161,0.306935 -1.649564,1.51317 -0.887894,2.382269 0.976939,0.946801 2.520386,0.675731 3.818971,0.721736 1.094786,-0.17088 1.61182,0.164106 0.458734,0.59813 -0.732307,0.306626 -1.936306,0.482558 -2.481998,0.558937 -0.735451,-0.0976 -1.540945,-0.278675 -2.165711,-0.642748 -0.473018,-0.438886 -0.92367,-0.879848 -1.0231,-1.531501 -0.36768,-0.931234 0.297073,-2.016887 0.971189,-2.619231 0.608701,-0.517628 1.482333,-0.934482 2.339549,-0.917696 z m 12.361699,8.323773 c 1.464961,-0.0066 2.913124,0.09751 4.077309,1.063611 1.092477,0.831309 1.438543,2.153791 1.295926,3.491704 -0.505693,1.654255 -0.297188,-0.818023 -0.653695,-1.385586 -0.496125,-1.351415 -2.048959,-2.117634 -3.476126,-2.082 -2.431917,-0.0192 -4.896376,0.751398 -7.110997,1.483267 -0.55007,0.1955 -1.119237,0.358528 -1.616433,0.649984 -0.633965,0.163794 -1.096678,0.438163 -1.690683,0.680734 -1.392376,0.670276 -3.045713,1.403874 -4.438863,2.172441 -0.540356,0.269838 -1.10627,0.626427 -1.642392,0.864634 -0.557199,0.409156 -1.148309,0.572683 -1.728705,0.997887 -0.858562,0.349214 -1.605904,1.212729 -2.577368,1.156468 -0.728142,-0.528718 0.321464,-1.236133 0.833569,-1.539341 0.577718,-0.219769 1.080249,-0.625967 1.607986,-0.880915 0.726065,-0.475183 1.479834,-0.792149 2.292467,-1.26379 0.954723,-0.499945 1.947512,-1.012825 2.812773,-1.441059 0.496625,-0.244237 1.038524,-0.50334 1.553661,-0.731986 0.940269,-0.391259 1.800079,-0.887628 2.848986,-1.255952 2.472222,-0.906806 5.015024,-1.7497 7.612585,-1.980101 z m -21.383082,4.592699 c 1.308392,-0.01896 0.705493,0.99444 -0.325343,1.149228 -1.097495,0.376708 -2.146702,0.657405 -2.89184,1.529695 -0.664478,0.651675 -1.116291,1.732976 -1.076215,2.570992 -0.111593,1.223526 0.672115,2.65369 1.808983,3.171538 0.797206,0.382447 1.673289,0.420104 2.685412,0.465478 1.219587,-0.07013 2.477326,-0.149768 3.584167,-0.518537 1.760641,-0.274788 3.359551,-0.971752 5.046085,-1.631593 0.806846,-0.383743 1.615721,-0.750601 2.35645,-1.087127 0.503794,-0.21898 1.045184,-0.487139 1.553661,-0.731383 1.288556,-0.627575 2.877254,-1.411075 4.255976,-1.892068 0.72447,-0.238003 1.614376,-0.560578 2.358257,-0.812782 1.167958,-0.287765 2.369098,-0.670579 3.640911,-0.763942 1.618873,-0.284686 3.459959,-0.07126 4.837237,0.63069 1.058409,0.464988 1.87875,1.605695 2.175368,2.676512 0.457369,1.312383 0.359044,2.861974 -0.399582,4.063907 -0.935098,1.126963 -1.900534,2.39199 -3.319186,2.890559 l -0.149695,0.0066 -0.03802,-0.04884 c 1.678245,-1.256677 3.490167,-2.964756 3.36506,-5.256547 0.11073,-1.810887 -1.409916,-3.459277 -3.098271,-3.805843 -1.385614,-0.376666 -2.8642,-0.08569 -4.243297,0.08623 -2.166038,0.503334 -4.37288,1.210529 -6.410822,2.092248 -0.763252,0.35237 -1.454107,0.653779 -2.179596,0.997891 -0.484582,0.247664 -0.973788,0.486762 -1.460105,0.731383 -1.74452,0.840455 -3.638956,1.660837 -5.416091,2.306295 -0.802391,0.162086 -1.502404,0.53742 -2.345584,0.613205 -1.791077,0.592459 -3.819109,0.627931 -5.733581,0.47211 -1.103576,-0.246587 -2.150429,-0.545747 -2.906931,-1.418146 -0.831398,-0.845381 -1.095469,-2.054298 -1.132353,-3.192638 -0.01634,-0.936543 0.217145,-1.521651 0.461149,-2.173046 0.921139,-1.748922 2.793757,-2.807865 4.710484,-3.104004 0.104663,-0.011 0.200087,-0.01682 0.287314,-0.01808 z m 23.99727,6.060891 c 0.03307,-6.19e-4 0.06614,-9.27e-4 0.100195,6.18e-4 0.649598,0.413787 0.263038,1.118225 -0.265585,0.399756 -0.570014,0.526781 -0.980119,1.123506 -1.298942,1.760626 -0.577153,0.71144 -1.130592,1.84207 -2.233921,1.609283 -0.655679,-0.08138 -1.007969,-0.697821 -1.254276,-1.21013 -0.988501,0.926541 -1.331588,2.522064 -2.558054,3.205304 -1.345011,0.488934 -1.718665,-1.134092 -2.591247,-1.697917 -0.939372,0.413778 -1.401078,1.554019 -2.290055,1.982508 -0.788865,0.404663 -1.295634,-1.072333 -1.904955,-0.623454 -0.290457,0.449851 -0.466126,1.039117 -0.998955,1.234851 -0.690408,0.866472 -2.07559,-0.140524 -2.57435,0.798311 -0.563277,0.525959 -1.277429,0.828404 -2.075172,0.747661 -0.656964,-0.320608 -1.731427,-0.740836 -1.498131,-1.612297 0.892796,-0.724912 1.513488,0.996569 2.374555,0.3268 0.607368,-0.275798 0.682827,-1.15077 1.620664,-1.125111 0.743772,0.259491 1.680012,0.134612 1.952641,-0.66506 0.337941,-0.680972 1.107729,-1.358072 1.924876,-0.897193 0.599982,0.495498 1.163095,0.76568 1.582032,-0.07838 0.646791,-0.598865 1.217045,-1.564921 2.241764,-1.130538 0.669903,0.08613 1.021107,0.744606 1.398537,1.263791 0.45421,0.907725 0.987454,-0.314298 1.265144,-0.731987 0.571682,-0.773778 0.941637,-1.858696 1.857274,-2.3274 1.007648,-0.229155 1.213639,0.842066 1.582634,1.462764 0.602036,0.429243 1.058638,-0.485706 1.445018,-0.853779 0.622105,-0.683898 1.173327,-1.81509 2.198307,-1.839009 z m 2.638329,1.495926 c 0.208855,0.381784 -0.620418,0.971181 -0.8215,1.463367 -0.826647,1.375931 -1.541351,2.922767 -2.086036,4.434119 -0.161554,0.588237 -0.480061,1.090385 -0.616274,1.693699 -0.432508,0.847787 -0.625453,1.773922 -1.00318,2.732588 -0.365387,1.222837 -0.679384,2.53601 -1.221686,3.688264 -1.350005,0.716725 -3.06795,0.622599 -4.569239,0.914079 -2.206533,0.189793 -4.446615,0.219969 -6.667954,0.08381 -1.295916,-0.125732 -2.635437,-0.225337 -3.860617,-0.578836 -1.071917,0.100688 -1.605565,-0.71823 -1.926083,-1.587577 -0.729108,-1.275 -1.36883,-2.689615 -2.041975,-3.908342 -0.302135,-0.441428 -0.476742,-0.936615 -0.732165,-1.397044 -0.352352,-0.814187 -0.965929,-1.648588 -1.254879,-2.581245 -0.430522,-1.448366 1.002848,-0.756123 1.258501,0.0091 0.238617,0.492992 0.486295,0.974747 0.728543,1.463367 0.299365,0.625417 0.724153,1.300733 0.998957,1.907144 0.65811,1.299193 1.443005,2.758526 2.108368,4.034965 0.20381,1.060439 1.532135,1.091581 2.486827,1.223391 4.121434,0.628457 8.365485,0.444614 12.439564,-0.398554 0.733288,-0.801892 0.616043,-2.149859 1.185468,-3.130532 0.523125,-1.634026 1.311311,-3.313136 1.955056,-4.766953 0.236204,-0.704065 0.74048,-1.335 1.06535,-2.036776 0.340728,-0.501505 0.657275,-1.038285 0.932559,-1.466382 0.502424,-0.625625 0.983435,-1.350546 1.642395,-1.795596 z m -5.033409,4.16641 c 0.06281,0.678869 -0.414114,1.387197 -0.58851,2.342473 -0.320863,0.842571 -0.589374,1.646781 -0.992315,2.359358 -0.324515,0.533559 -0.27007,1.191141 -0.865562,1.596622 -0.359791,0.30401 -0.230999,1.322866 -1.043019,0.90865 -0.19893,-0.859231 0.702757,-1.515865 0.909624,-2.267709 0.182869,-0.617635 0.597605,-1.024222 0.799166,-1.567678 0.548445,-1.089753 1.150345,-2.295977 1.780616,-3.371716 z m -4.481721,1.881213 c 0.03931,0.01212 0.06361,0.14582 0.06398,0.469702 -0.07549,1.285864 -0.332464,2.553623 -0.669991,3.743137 -0.295502,0.491935 -0.413293,1.265618 -0.799166,1.512206 -0.03218,0.0986 -0.27868,0.0986 -0.310854,0 -0.54409,-0.550707 0.486866,-1.581457 0.510643,-2.400961 0.237024,-0.686475 0.456608,-1.307211 0.665772,-1.995173 0.166165,-0.305993 0.421675,-1.365082 0.539614,-1.328911 z m -4.764809,0.174857 c 0.361237,0.702503 0.617545,2.05559 0.531167,3.108227 -0.01114,0.84576 -0.05385,1.919906 -0.411654,2.309314 -0.484661,0.197149 -0.60619,0.07424 -0.532976,-0.421469 0.267917,-1.63387 0.175333,-3.360027 0.413463,-4.996072 z m -3.387392,1.892067 c 0.438651,0.670244 0.845793,1.537501 0.893324,2.298461 0.111806,0.618636 0.123542,1.210263 -0.284296,1.679226 l -0.132791,0.01328 -0.265582,-0.08381 c 0.0233,-1.225949 -0.410226,-3.066276 -0.210655,-3.907143 z m -3.432666,0.07417 c 0.05048,0.0038 -0.09032,0.268358 -0.207639,0.211033 0.122052,-0.160602 0.184687,-0.212783 0.207639,-0.211033 z m 0.03742,0.242388 c 0.17515,0.0038 0.666979,0.783061 0.820293,0.997889 0.432429,0.858534 0.866962,1.895085 0.488308,2.676509 -0.09185,0.130438 -0.416156,0.23774 -0.464769,0.01138 -0.256695,-1.147585 -0.579242,-2.323382 -0.889104,-3.381364 -0.03626,-0.220609 -0.01309,-0.305763 0.04527,-0.30449 z M 20.33112,47.952877 c -0.07309,0.0061 -0.157643,0.03534 -0.27524,0.08441 -0.34611,0.144463 -0.686411,0.476718 -1.244017,1.216157 -0.534488,0.708797 -1.339534,2.242989 -1.177017,2.242989 0.01476,0 0.247516,-0.07537 0.517283,-0.167019 0.759942,-0.258201 1.298544,-0.578019 1.793293,-1.065419 0.502045,-0.494597 0.859054,-1.126633 0.928334,-1.642445 0.03894,-0.290004 0.02695,-0.324731 -0.175647,-0.495025 -0.155488,-0.130695 -0.245159,-0.18397 -0.366989,-0.173653 z m -9.877886,3.864332 c -0.7287036,0.0015 -1.4668932,0.03567 -2.1892528,0.108537 0.00613,0.09668 0.011761,0.173817 0.018105,0.277963 0.091899,1.515137 0.3406329,3.063825 0.5528959,3.441057 0.2122616,0.37724 1.1396611,1.241943 2.0606859,1.921608 1.959641,1.446133 2.457062,2.126578 2.854418,3.90292 0.539008,2.409593 1.975799,3.789771 4.337459,4.167014 1.377213,0.219988 2.81612,1.337616 3.870276,3.005725 1.15188,1.822746 2.319213,2.384141 4.960373,2.385283 2.375585,0.0013 2.92497,0.188527 4.682717,1.595415 0.606366,0.485329 1.50228,1.001713 1.991273,1.148024 h 6.17e-4 c 1.35903,0.406124 1.811524,0.368442 3.493026,-0.293637 1.973132,-0.776928 3.246334,-0.772656 5.253121,0.01747 2.034973,0.801254 3.503942,0.584681 5.294766,-0.780827 2.032588,-1.549844 2.41992,-1.685319 4.828789,-1.686462 2.64116,-0.0013 3.8085,-0.562534 4.960373,-2.385283 1.054153,-1.66811 2.49307,-2.785732 3.870276,-3.005724 2.361662,-0.377242 3.79844,-1.757421 4.337456,-4.167012 0.397536,-1.777109 0.894933,-2.456974 2.85925,-3.906534 0.784902,-0.579227 1.340941,-1.065602 1.734139,-1.57974 -1.902494,-0.907219 -3.375838,-1.34121 -4.279515,-1.248716 -1.025843,0.104986 -1.68346,0.454094 -3.697644,1.962011 -1.456684,1.090532 -2.124491,1.484091 -2.833899,1.668975 -0.98567,0.256877 -2.128103,-0.03981 -2.762669,-0.717514 -0.164581,-0.175766 -0.320511,-0.386801 -0.346465,-0.468496 -0.06506,-0.204729 -0.140159,-0.186341 -0.301195,0.07355 -0.326522,0.527007 -0.811046,0.803134 -1.410613,0.803134 -0.769859,0 -1.105491,-0.467419 -1.520464,-2.118177 l -0.06037,-0.239372 -0.289125,0.425686 c -0.285481,0.419614 -0.765666,1.353344 -0.981451,1.90895 -0.130895,0.337039 -0.345985,0.467486 -0.88065,0.534216 -0.319135,0.0398 -0.404447,0.02627 -0.545049,-0.08742 -0.145383,-0.117598 -0.1651,-0.185783 -0.155125,-0.535425 0.0061,-0.220432 0.07658,-0.611548 0.156333,-0.868855 0.07974,-0.257324 0.132208,-0.480526 0.116497,-0.49623 -0.01573,-0.01568 -0.225718,0.207383 -0.466583,0.495629 -0.942678,1.128118 -1.726355,1.581785 -2.240558,1.296951 -0.214559,-0.118859 -0.543469,-0.616402 -0.597562,-0.90443 -0.02382,-0.127213 -0.05898,-0.231534 -0.07846,-0.231534 -0.01947,0 -0.15824,0.111061 -0.308438,0.246607 -0.150203,0.135551 -0.498993,0.353224 -0.775023,0.484174 -1.324339,0.628249 -2.388639,0.216999 -2.900289,-1.121494 l -0.110467,-0.288815 -0.543843,0.495627 c -0.769884,0.700845 -1.051831,0.907692 -1.553058,1.141995 -1.425088,0.666171 -2.825795,0.48928 -3.686176,-0.466084 l -0.298782,-0.331625 -0.342241,0.157372 c -0.587829,0.270558 -1.013339,0.328448 -1.709996,0.23274 -0.805115,-0.110623 -0.732823,-0.11701 -1.41061,0.12662 -0.701816,0.252261 -1.706439,0.415483 -2.561671,0.416039 l -0.619895,6.18e-4 -0.144262,0.460657 c -0.07939,0.253681 -0.210208,0.691894 -0.290331,0.973771 -0.268329,0.94395 -0.470583,1.398377 -0.737597,1.657518 -0.362127,0.351448 -0.724341,0.477513 -0.891515,0.310522 -0.160165,-0.16 -0.07883,-0.787546 0.293953,-2.265902 0.206856,-0.820344 0.393573,-1.519091 0.414672,-1.553208 0.06305,-0.101913 -0.03887,-0.07076 -0.242646,0.07417 -0.105325,0.07491 -0.346742,0.172082 -0.5366,0.215854 -0.453337,0.104537 -0.896498,-0.04843 -1.101566,-0.379858 -0.131297,-0.212224 -0.306787,-1.100011 -0.239025,-1.209525 0.01752,-0.02834 0.0055,-0.06766 -0.02656,-0.08742 -0.03205,-0.01976 -0.106713,0.06578 -0.16599,0.189932 -0.308279,0.645773 -1.601578,1.678637 -2.497691,1.994571 -1.498376,0.528278 -2.52435,-0.360167 -2.284017,-1.977688 0.03951,-0.265943 0.06561,-0.48979 0.05794,-0.497436 -0.0078,-0.0078 -0.291066,0.198812 -0.629554,0.458847 -1.137718,0.874024 -2.409549,1.568381 -3.317377,1.810669 -1.145786,0.27058 -2.117568,0.02599 -2.797076,-0.651793 -1.161561,-1.17848 -1.450007,-3.044628 -0.81003,-5.24027 l 0.162368,-0.556525 -0.243854,-0.038 c -1.093806,-0.109461 -2.40287,-0.204515 -3.748942,-0.201384 z m 50.95519,0.176061 c -0.332487,0.01827 -0.695785,0.200839 -1.021893,0.536027 -0.324313,0.33334 -0.973332,1.275477 -0.973605,1.41332 -2.01e-4,0.103888 0.248476,0.07184 1.012841,-0.129634 0.649577,-0.171214 1.077301,-0.391459 1.467347,-0.756705 0.418585,-0.391966 0.458066,-0.548152 0.203415,-0.802532 -0.189479,-0.189274 -0.429503,-0.274684 -0.688105,-0.260476 z m -27.833743,0.739221 c -0.06009,-1.46e-4 -0.123053,0.0019 -0.188927,0.0061 -0.879671,0.05595 -1.133005,0.420708 -1.975578,2.840514 l -0.243853,0.700635 h 0.504611 c 0.438858,0 0.561076,0.0296 0.937991,0.226708 0.402489,0.210478 0.445202,0.219315 0.594544,0.12421 0.08848,-0.05634 0.31187,-0.288619 0.496159,-0.516131 0.908973,-1.122198 1.252258,-2.47258 0.773208,-3.041296 -0.194582,-0.231001 -0.477517,-0.339648 -0.898155,-0.340671 z m 13.714968,0.24299 c -0.633202,0.01644 -1.643737,0.819878 -2.034125,1.617121 -0.456234,0.931703 -0.45691,1.995522 -0.0019,2.450405 0.220145,0.219911 0.392272,0.240399 0.720091,0.08502 h 6.19e-4 c 0.280048,-0.132751 0.764058,-0.640121 1.008612,-1.056974 0.286719,-0.488717 1.084354,-2.607767 1.043622,-2.772381 -0.04414,-0.178383 -0.394656,-0.332081 -0.736992,-0.323185 z m -15.368225,3.6949 c -0.344261,-0.02608 -0.682048,0.08254 -0.854693,0.313536 -0.122478,0.163856 -0.128392,0.199599 -0.04105,0.258063 0.16384,0.109674 1.025622,0.03637 1.367152,-0.116373 l 0.307232,-0.137472 -0.186511,-0.122398 C 32.3368,56.750051 32.127976,56.686032 31.921419,56.67038 Z" />
    <path
       id="path2773-6"
       style="fill:#ffffff;stroke-width:0.347741"
       d="m 34.232998,0.68778822 c -1.250433,0.0119235 -2.398447,0.55650688 -3.857977,1.71023758 -1.76121,1.392209 -1.91431,1.4417934 -4.965544,1.6184959 -3.695404,0.2140081 -4.492447,0.6218942 -6.144388,3.1452493 -1.142134,1.7446163 -3.187103,3.11782 -4.647529,3.120602 -1.676504,0.0031 -4.321402,2.645385 -4.324719,4.320095 -0.0028,1.458866 -1.3774547,3.502348 -3.1239415,4.643247 -2.5260554,1.650188 -2.9343773,2.445682 -3.1486133,6.137141 -0.1768908,3.047986 -0.2272146,3.200905 -1.6209108,4.960236 -1.84794622,2.332744 -2.13399886,3.869338 -1.1740511,6.302139 0.8985811,2.277416 0.9001,3.546166 0.00826,6.080995 -0.91276949,2.594207 -0.66240056,3.922273 1.17679,6.243944 1.3772181,1.738514 1.4336915,1.910683 1.6168005,4.929428 0.1043486,1.720411 0.3867816,3.478236 0.6278017,3.906572 0.2410214,0.428352 1.2940633,1.410205 2.3398721,2.181956 2.2251376,1.642057 2.7906353,2.415373 3.2418254,4.432379 0.612032,2.736047 2.242797,4.302531 4.924419,4.730883 1.563801,0.249792 3.19834,1.51884 4.395311,3.412946 1.307937,2.069697 2.632747,2.707148 5.63173,2.708446 2.697433,0.0015 3.321931,0.21407 5.317828,1.811564 0.688522,0.551085 1.705127,1.138111 2.260369,1.304246 h 7.03e-4 c 1.543149,0.461141 2.056941,0.417675 3.966264,-0.334105 2.240452,-0.88219 3.686834,-0.877349 5.965507,0.01985 2.310676,0.909811 3.977986,0.663897 6.011427,-0.886611 2.307969,-1.759817 2.748456,-1.91365 5.483691,-1.914947 2.998986,-0.0015 4.323797,-0.638749 5.631724,-2.708447 1.196986,-1.894111 2.831522,-3.163151 4.395312,-3.412944 2.681625,-0.428354 4.31237,-1.994836 4.924423,-4.730886 0.451386,-2.017874 1.016176,-2.789843 3.246623,-4.435798 2.456978,-1.813149 2.961504,-2.820301 2.961504,-5.916685 0,-2.648378 0.186584,-3.178253 1.929333,-5.467554 1.534164,-2.015291 1.737241,-3.395041 0.864942,-5.874239 -0.89114,-2.534829 -0.889053,-3.803582 0.0095,-6.080996 0.90646,-2.297266 0.67093,-3.917699 -0.862889,-5.93243 -1.758821,-2.310307 -1.940369,-2.828966 -1.941668,-5.551086 -0.0015,-2.995776 -0.639452,-4.319163 -2.711344,-5.62571 -1.896097,-1.195693 -3.166504,-2.828486 -3.41656,-4.390618 -0.396373,-2.476063 -2.582198,-4.859307 -4.459736,-4.863015 -1.460423,-0.0028 -3.5054,-1.3759863 -4.647533,-3.1206027 C 58.465597,4.6384092 57.668566,4.2305219 53.973145,4.0165151 50.921914,3.8398138 50.768824,3.7902296 49.007602,2.3980192 46.672363,0.55204924 45.134834,0.26561738 42.699408,1.2245413 c -2.290716,0.9019495 -3.725497,0.9019522 -6.016224,0 -0.91328,-0.35959738 -1.699958,-0.54390995 -2.450219,-0.53676095 z m 0.39752,2.84263668 c 0.695575,-0.00662 1.425303,0.1643494 2.272019,0.4977358 2.12376,0.8362122 3.453148,0.8362096 5.576896,0 2.257917,-0.8890321 3.683972,-0.6235265 5.848995,1.0878968 1.632866,1.2907391 1.774838,1.336916 4.603663,1.5007382 3.426079,0.1984105 4.16462,0.5764553 5.696155,2.9158936 1.058877,1.6174577 2.954967,2.8906877 4.308954,2.8933007 1.740693,0.0035 3.767384,2.212779 4.134868,4.508372 0.231824,1.448273 1.409201,2.96166 3.167124,4.070204 1.920878,1.211314 2.512534,2.438865 2.513956,5.216293 0.0011,2.523713 0.169171,3.004542 1.799792,5.146462 1.422029,1.867885 1.640918,3.369905 0.800519,5.499734 -0.833142,2.111421 -0.835056,3.287957 -0.0083,5.638032 0.808727,2.2985 0.620455,3.57725 -0.801891,5.445651 -1.615729,2.122445 -1.788831,2.613748 -1.788831,5.069097 0,2.870695 -0.46771,3.804361 -2.745614,5.485355 -2.067872,1.52599 -2.591671,2.241849 -3.010166,4.112653 -0.567436,2.536623 -2.079114,3.989375 -4.565286,4.386505 -1.449824,0.231586 -2.964814,1.407681 -4.074553,3.163735 -1.212595,1.918847 -2.441472,2.509846 -5.221875,2.511268 -2.535866,0.0011 -2.94367,0.143732 -5.083429,1.775278 -1.88523,1.437504 -3.431892,1.665757 -5.574159,0.822259 -2.112593,-0.83181 -3.453135,-0.83637 -5.53029,-0.01848 -1.770429,0.697093 -2.246547,0.737194 -3.677726,0.309462 -0.51465,-0.153817 -1.458025,-0.697993 -2.096562,-1.20908 C 29.324351,72.877732 28.7457,72.680631 26.244876,72.679361 23.464473,72.678276 22.23561,72.08694 21.023001,70.168094 19.913277,68.412039 18.39826,67.235944 16.948444,67.004359 14.462312,66.607229 12.950625,65.154483 12.3832,62.617856 11.964895,60.74786 11.440783,60.031001 9.3778293,58.508629 8.4082462,57.793123 7.4320668,56.882641 7.2086145,56.485512 6.9851598,56.088392 6.7227932,54.458768 6.6260469,52.863751 6.4562853,50.065027 6.4039697,49.905557 5.1271302,48.29376 3.421995,46.141303 3.1904588,44.910228 4.0366979,42.505101 4.8635663,40.155027 4.8615168,38.978491 4.0284402,36.867069 3.138456,34.611583 3.4042469,33.18705 5.1175024,31.024326 6.40962,29.393224 6.4558462,29.251414 6.6198447,26.425579 c 0.1986202,-3.422401 0.5770725,-4.160156 2.9190129,-5.690064 1.6191904,-1.057747 2.8937814,-2.951816 2.8963974,-4.304351 0.0032,-1.552649 2.45514,-4.002157 4.009445,-4.005159 1.353992,-0.0025 3.250066,-1.275843 4.308953,-2.8933008 C 22.28519,7.1932659 23.023739,6.8152211 26.449809,6.6168092 29.27865,6.452987 29.420635,6.4068089 31.053476,5.1160724 32.40662,4.0464322 33.471151,3.5414877 34.630448,3.5304398 Z" />
  </g>
</svg>
